<?xml version="1.0" encoding="utf-8"?>
<!-- Generator: Adobe Illustrator 13.0.2, SVG Export Plug-In . SVG Version: 6.00 Build 14948)  -->
<!DOCTYPE svg PUBLIC "-//W3C//DTD SVG 1.1//EN" "http://www.w3.org/Graphics/SVG/1.1/DTD/svg11.dtd" [
	<!ENTITY ns_extend "http://ns.adobe.com/Extensibility/1.0/">
	<!ENTITY ns_ai "http://ns.adobe.com/AdobeIllustrator/10.0/">
	<!ENTITY ns_graphs "http://ns.adobe.com/Graphs/1.0/">
	<!ENTITY ns_vars "http://ns.adobe.com/Variables/1.0/">
	<!ENTITY ns_imrep "http://ns.adobe.com/ImageReplacement/1.0/">
	<!ENTITY ns_sfw "http://ns.adobe.com/SaveForWeb/1.0/">
	<!ENTITY ns_custom "http://ns.adobe.com/GenericCustomNamespace/1.0/">
	<!ENTITY ns_adobe_xpath "http://ns.adobe.com/XPath/1.0/">
]>
<svg version="1.1" id="Layer_1" xmlns:x="&ns_extend;" xmlns:i="&ns_ai;" xmlns:graph="&ns_graphs;"
	 xmlns="http://www.w3.org/2000/svg" xmlns:xlink="http://www.w3.org/1999/xlink" x="0px" y="0px" width="504.03px"
	 height="117.795px" viewBox="0 0 504.03 117.795" enable-background="new 0 0 504.03 117.795" xml:space="preserve">
<metadata>
	<sfw  xmlns="&ns_sfw;">
		<slices></slices>
		<sliceSourceBounds  height="117.795" width="504.03" y="255.658" x="142.514" bottomLeftOrigin="true"></sliceSourceBounds>
	</sfw>
</metadata>
<g>
	<path fill-rule="evenodd" clip-rule="evenodd" d="M122.37,4.583c-5.641-2.92-12.782-2.966-20.073-2.409
		c1.107-1.909,6.689-1.997,10.438-1.605c1.497,0.156,3.282,0.497,4.416,0.803C119.346,1.962,122.057,2.801,122.37,4.583z"/>
	<path fill-rule="evenodd" clip-rule="evenodd" d="M110.728,5.386c1.834-0.013,0.021,1.409,0.401,2.409
		c0.173,0.898,1.979,0.163,2.81,0.401c0.9-0.572,0.767-2.178,1.606-2.81c0.803,0,1.606,0,2.409,0
		c-0.231,1.258-3.358,1.703-1.605,3.613c-0.11,0.826-1.496,0.378-1.606,1.204c-2.188-2.286-8.713-0.555-10.438-1.204
		c0.543-1.345,3.826-1.589,5.219-0.803C110.807,7.773,109.523,6.38,110.728,5.386z"/>
	<path fill-rule="evenodd" clip-rule="evenodd" d="M129.195,13.816c0.385-3.709-2.052-6.648-4.818-6.825
		c-2.127-0.136-3.151,1.765-5.219,2.007c1.729-4.924,10.229-3.882,11.241,0.803C130.522,10.37,131.148,13.647,129.195,13.816z"/>
	<path fill-rule="evenodd" clip-rule="evenodd" d="M103.1,8.598c-0.653,2.078-3.03,1.196-4.416,1.605
		c-2.284,0.676-4.944,1.892-6.825,3.212c-1.91,1.34-2.876,3.979-5.219,3.613c0.595-1.81,2.767-3.741,4.416-4.818
		C94.132,10.202,97.823,8.824,103.1,8.598z"/>
	<path fill-rule="evenodd" clip-rule="evenodd" d="M114.34,11.006c1.053,0.605,2.022,2.805,1.205,4.015
		C113.963,14.944,113.434,12.305,114.34,11.006z"/>
	<path fill-rule="evenodd" clip-rule="evenodd" d="M111.129,19.036c-5.938-0.218-8.661-3.65-14.453-4.015
		c-1.48,0.292,0.171,1.208-0.803,2.007c-1.265,0.828-4.691,2.096-6.022,0.401c-0.156-1.628,2.502-0.442,3.613-0.803
		c1.042-0.339-0.772-1.761,0.402-2.409c4.646-0.788,8.61,0.143,11.241,2.409C107.649,16.895,110.312,17.042,111.129,19.036z"/>
	<path fill-rule="evenodd" clip-rule="evenodd" d="M492.117,23.05c-0.332,1.441,0.905,1.942,0,2.81
		c-1.367,0.029-1.496-1.181-2.008-2.007c0.062-2.419,3.448-3.682,5.22-2.007C495.593,23.583,492.515,21.977,492.117,23.05z"/>
	<path fill-rule="evenodd" clip-rule="evenodd" d="M72.588,21.846c1.643,0.506,0.217,4.353-1.605,4.015
		C70.703,23.707,72.169,23.3,72.588,21.846z"/>
	<path fill-rule="evenodd" clip-rule="evenodd" d="M87.443,25.058c-1.589,3.63-4.208,6.23-5.621,10.036
		c-2.793-1.482,0.98-4.858,2.409-6.825C84.85,27.417,85.499,24.461,87.443,25.058z"/>
	<path fill-rule="evenodd" clip-rule="evenodd" d="M442.737,34.291c-2.002,2.091-2.419-0.08-5.219,0
		c-0.171-0.839,0.274-1.063,0.401-1.606c1.288-0.352,0.832,1.042,1.605,1.205c0.687,0.018,1.04-0.298,1.204-0.803
		c-0.479-1.259-1.374-0.139-2.408-1.205c0.44-1.639,1.726-1.236,0.401-2.81C441.07,28.297,441.339,32.805,442.737,34.291z"/>
	<path fill-rule="evenodd" clip-rule="evenodd" d="M242.005,35.496c-1.362-0.11-1.376-1.568-2.81-1.606
		c-0.046-1.425,0.29-3.234-1.205-3.212c-0.773,0.041,0.624,1.496-0.401,2.007c-2.783-2.442-6.302,1.073-8.029,0.803
		c0.348-3.8,6.015-2.283,8.029-4.416c2.061-0.053,3.021,0.993,3.212,2.81C243.006,31.572,243.178,34.714,242.005,35.496z"/>
	<path fill-rule="evenodd" clip-rule="evenodd" d="M383.722,29.072c1.246,0.761,2.292,1.722,2.81,3.211
		C384.968,33.244,382.458,31.02,383.722,29.072z"/>
	<path fill-rule="evenodd" clip-rule="evenodd" d="M65.764,31.882c0.071,1.41-1.356,1.32-1.606,2.409
		C63.061,33.426,64.235,31.451,65.764,31.882z"/>
	<path fill-rule="evenodd" clip-rule="evenodd" d="M304.633,33.488c0.146,1.694-1.389,3.136-2.81,2.007
		c-0.113-1.05,0.146-1.727,1.204-1.606c0.241-1.58-2.778,0.102-2.409-1.606C302.001,31.294,304.236,32.227,304.633,33.488z"/>
	<path fill-rule="evenodd" clip-rule="evenodd" d="M447.153,33.087c0.192,1.263-0.571,1.569-0.803,2.409
		c-1.228,0.29-1.463-0.411-2.409-0.402c-0.184-1.254,0.857-1.283,2.008-1.204c-0.095-2.006-2.604,0.729-2.409-1.205
		C444.468,31.875,446.62,32.275,447.153,33.087z"/>
	<path fill-rule="evenodd" clip-rule="evenodd" d="M383.722,35.897c1.594-0.122,1.912,1.031,2.408,2.007c-0.803,0-1.605,0-2.408,0
		C383.722,37.235,383.722,36.566,383.722,35.897z"/>
	<path fill-rule="evenodd" clip-rule="evenodd" d="M58.538,36.7c1.49,0.058,2.792,1.732,2.007,2.811
		C58.785,39.721,57.747,37.783,58.538,36.7z"/>
	<path fill-rule="evenodd" clip-rule="evenodd" d="M241.604,40.714c-2.111,0.49-4.389-0.943-3.613-2.007
		C239.017,39.003,241.725,38.097,241.604,40.714z"/>
	<path fill-rule="evenodd" clip-rule="evenodd" d="M449.16,38.306c0.413,1.617-0.625,1.784-1.204,2.409
		C446.348,40.278,447.435,37.821,449.16,38.306z"/>
	<path fill-rule="evenodd" clip-rule="evenodd" d="M305.035,40.313c0.338,0.466,0.53,1.076,0.402,2.007
		c-0.938,0.124-1.659,0.786-2.409,0C302.784,40.738,303.926,40.542,305.035,40.313z"/>
	<path fill-rule="evenodd" clip-rule="evenodd" d="M87.041,57.174c-1.288,1.79-3.406,2.75-5.219,4.015
		C82.468,58.757,84.554,57.765,87.041,57.174z"/>
	<path fill-rule="evenodd" clip-rule="evenodd" d="M105.107,61.189c0.648-0.113,0.691,0.379,1.205,0.401
		c-1.042,2.572-2.294,4.932-2.811,8.03c1.341,1.09,4.442-0.994,4.818,1.605c-1.029,0.636-3.177-0.384-5.219,0
		c-1.354,1.725-1.814,4.342-2.81,6.424c1.297,1.379,4.575,0.777,6.022,2.007c1.186-0.955-0.135-4.417,2.007-4.416
		c0.941,1.059,0.067,2.737,0,4.015c4.635,0.315,8.938-1.717,12.445-1.204c-2.287,3.239-7.355,2.388-12.445,2.408
		c-1.259,0.005-2.146,0.538-3.212,0.401c-1.198-0.153-2.105-0.893-3.212-1.204c-2.165-0.608-4.7-0.176-5.62-2.007
		c0.056-1.148,1.674-0.734,2.81-0.804C101.288,71.822,102.76,66.068,105.107,61.189z"/>
	<path fill-rule="evenodd" clip-rule="evenodd" d="M244.816,85.276c2.011-0.239,2.93,2.192,2.007,3.613
		C245.201,88.639,245.357,86.609,244.816,85.276z"/>
	<path fill-rule="evenodd" clip-rule="evenodd" d="M76.202,41.116c-0.627-3.391-3.218-4.861-6.423-3.613
		c-0.397-1.602,1.2-1.209,0.803-2.811c-1.613-0.064-3.313,1.211-4.416,0.401c0.296-2.202,2.378-1.566,1.205-4.416
		c1.113,2.232,4.492,2.2,4.817,5.219c4.126-0.112,5.949,2.081,5.621,6.423c-1.967,1.645-5.221,1.937-8.029,0.803
		c0.533,2.278,3.277,2.344,5.219,3.212c-0.347,1.66-1.333,2.682-3.211,2.81c-0.02,1.358,0.935,1.742,1.606,2.409
		c1.042-0.339-0.772-1.761,0.401-2.409c1.26-0.189,1.061,1.081,2.007,1.205c1.108-1.072-0.474-0.873-0.401-2.007
		c3.979,0.209,8.307,1.273,12.445,0c1.869-0.575,4.488-3.055,7.627-4.015c0.473-0.145,1.154,0.193,1.606,0
		c1.884-0.807,5.613-2.784,6.423-4.015c0.5-0.758,0.45-2.088,0.803-2.81c2.78-1.101,3.85-3.912,6.423-5.219
		c0.615,4.403-6.748,4.066-4.416,7.628c-1.896-0.022-2.282,1.465-3.212,2.409c2.153,1.072,4.07-1.542,4.817-3.212
		c1.698-0.092,0.91,2.303,3.212,1.606c2.003-0.405,2.107-2.71,3.211-4.015c-1.637,0.643-1.982,0.753-4.014,0.401
		c0.921-1.755,0.77-4.583,2.409-5.62c-0.097-1.035-0.691,0.551-1.606,0c0.417-1.591,2.53-1.484,3.613-2.409
		c0.257-3.089,2.491-4.2,2.81-7.227c-0.059-0.877-1.012-0.862-2.007-0.803c-1.922,1.557-1.091,5.867-3.613,6.825
		c-0.037-2.714,1.788-3.565,2.007-6.022c-4.326-2.05-8.583,0.883-12.044-0.803c-1.599-0.127-1.087,1.856-2.409,2.007
		c-2.071,0.198-3.194-0.553-3.211-2.409c1.421,0.698,4.116,1.483,4.015-1.205c1.5-0.429,1.144,0.997,2.409,0.803
		c3.767,0.16,7.686-1.112,10.438,0c0.274-0.796,2.392,0.25,2.007-1.204c1.114,0.09,1.136,1.273,2.007,1.606
		c0.701-0.016,1.622-0.702,2.007-1.205c-0.038,0.049,1.219-2.487,1.204-2.007c0.036-1.187-5.1-4.654-2.007-8.029
		c2.665,0.28,3.956,1.932,6.424,2.409c-1.112,2.597-3.195-0.719-5.219-0.803c-0.325,0.076-0.4,0.403-0.803,0.401
		c-0.06,4.802,5.336,7.59,9.233,4.817c-0.253-2.155-3.416-1.402-3.613-3.613c1.447-0.001,4.423,1.653,6.022,2.81
		c-1.292,2.054-3.077,3.614-6.825,3.211c-1.103,0.771-1.726,2.021-1.606,4.015c-2.416,3.606-3.539,8.505-6.022,12.044
		c0,0.669,0,1.338,0,2.007c-1.24,3.133-4.525,5.718-5.62,8.833c-1.371,3.896-2.875,7.665-4.818,11.241
		c-0.897,1.652-1.592,3.894-2.81,6.022c-0.183,0.319-1.049,0.494-1.205,0.803c-0.746,1.486-1.266,3.219-2.007,4.818
		c-1.532,3.303-1.692,7.557-5.62,8.832c-0.594-2.821,1.444-5.253,2.409-7.627c1.061-2.614,2.227-5.115,3.211-7.628
		c1.783-4.551,3.374-9.395,5.621-13.65c0.89-1.686,2.727-2.773,2.81-4.817c-1.43-0.092-2.099,0.577-2.007,2.007
		c-6.266,2.328-10.384,8.846-17.263,9.233c-1.615,0.293-4.004,2.118-5.219,0.401c-1.182,2.063-4.221,0.418-6.825,0.401
		c-0.397,1.602,1.2,1.209,0.803,2.811c-1.849,0.242-1.132-2.08-2.409-2.409c-0.896,0.059,0.521,1.011,0,2.007
		c-1.228,0.291-1.181-0.693-2.409-0.402c1.878,1.869,5.41,2.084,8.833,2.409c-0.514,1.646-3.117,0.417-4.015,0
		c1.772,0.904,2.656,2.696,4.416,3.613c1.09,0.288-0.287-1.893,0.803-1.605c2.476,0.468,2.841,3.047,4.818,4.015
		c0.992-0.5-1.552-2.051-0.402-2.811c1.653,1.023,3.261,2.092,5.219,2.811c0.325-0.077,0.4-0.403,0.803-0.402
		c-0.543-2.267-1.695-3.925-3.613-4.817c0.768-1.939,1.779,0.593,3.212,0.401c-0.698-1.979-3.036-2.317-4.817-3.211
		c0.261-1.479,2.387-1.092,3.613-1.606c0.14,2.403,2.124,2.961,3.212,4.416c0.188,1.258-1.009,1.132-1.606,1.606
		c-0.11,1.583,1.716,1.228,1.606,2.81c-0.347,2.346-3.213,2.124-4.817,1.205c-0.995,0.292,1.325,1.208,0,2.007
		c-3.237,0.159-3.563-2.593-5.621-3.613c-2.215,0.148-3.694,0.748-5.219-0.401c0.277,2.401,1.316,3.758,1.205,6.022
		c-0.042,0.838-1.008,1.646-1.205,2.408c-0.515,1.997-0.326,5.542,0,7.227c5.864,2.969,11.132,6.532,18.066,8.431
		c4.061,5.077,0.007,12.781-0.803,18.869c1.621,2.661,6.284,2.279,10.037,2.81c1.733-0.273,1.648-2.365,4.015-2.007
		c0.879,1.529,0.9,3.917,2.007,5.219c-0.425,3.055-5.199,1.761-7.227,3.212c-6.179-1.806-13.541-0.042-17.664-3.613
		c0-1.07,0-2.141,0-3.212c1.848-0.916,1.833-4.438,2.409-7.226c1.066-5.169,2.979-7.929-3.613-7.628
		c-0.754-0.71,0.478-1.172-0.401-2.008c-0.914,0.971-4.207,1.159-4.015-1.204c-2.375,0.501-2.87-0.878-4.015-1.605
		c-3.55,0.947-5.502-2.293-8.029-3.613c-1.077,1.469,1.188,2.373,2.409,2.81c-3.726,5.91-8.519,10.752-14.051,14.854
		c-8.208,0.313-12.577-3.214-20.876-2.811c-1.097,1.446-0.653,4.433-2.007,5.621c0.299,1.173,2.167,0.776,2.007,2.408
		c-0.819,0.772-1.641-0.718-2.81-0.803c-0.623-2.889,1.053-5.895,1.606-8.832c0.995-0.35,3.112-0.784,4.015,0
		c0.846-0.84-0.529-1.509-1.205-2.008c-2.076,0.998-3.469-0.547-4.817,0c-3.494,1.417-0.878,7.375-2.811,11.241
		c0.888,2.056,5.089,0.799,6.825,2.008c1.212-1.114-1.317-1.878,0.401-2.811c1.638,0.235,2.867,0.88,3.211,2.409
		c-0.875,1.3-2.176,2.297-4.015,2.408c-0.668,0.041-1.327-0.816-2.81-1.204c-2.881-0.753-4.903,0.253-5.621-2.008
		c1.421-3.466,1.42-6.168,1.205-10.839c5.128-5.819,17.328-0.217,24.489-0.803c1.834-0.977,1.803-3.817,2.81-5.621
		c2.268-1.077,4.033-2.658,5.621-4.416c-5.221,0.963-10.399,3.251-16.46,4.416c-8.629,1.659-21.449,0.607-28.103-2.007
		c-0.785-0.309-1.863-1.17-2.81-1.606c-4.852-2.232-9.042-5.934-12.445-10.036c-2.027-2.443-5.27-8.197-2.409-12.445
		c2.008-2.981,7.715-2.577,7.627,2.811c-2.219,0.211-1.525-2.49-3.211-2.811c-1.18,0.693-2.894,0.853-3.613,2.007
		c-0.896,4.992,1.566,7.593,4.015,10.438c2.202,2.557,3.739,4.277,7.227,6.423c13.82,8.508,40.216,6.597,51.387-2.408
		c-0.764-5.244,3.756-4.265,3.212-9.636c-0.436-4.298-5.266-6.171-6.423-10.438c2.186-0.271,1.786,2.661,4.015,1.204
		c-1.508-1.302-3.525-2.095-4.818-3.613c-1.262,1.128,1.042,1.099,0,2.007c-3.965,0.619-5.591-1.1-8.431-1.606
		c1.005-3.426,1.727-4.001,0.803-8.029c0.466-0.337,1.076-0.529,2.007-0.401c-0.42-1.052-1.274-1.67-2.007-2.409
		c0.443-2.82,2.042-4.641,4.416-6.423c-0.351-3.128-5.382-1.577-5.219-5.219c-0.967-0.165-0.873,0.733-2.007,0.401
		c-0.356-0.714-1.121-1.02-0.803-2.409c-2.239-0.247-0.189-2.286-2.81-2.007c-0.292-1.228,0.692-1.181,0.401-2.409
		c-0.474-1.199-0.348,1.468-1.606,0.803c-0.422-1.76,1.358-1.318,1.205-2.81c-1.139-0.068-0.784,1.357-2.409,0.803
		c-0.216-1.554,1.023-1.653,1.205-2.81c-0.967-0.165-0.873,0.733-2.007,0.401c1.114-2.123-1.915-3.291-0.803-5.219
		c-1.523,0.05-0.573-2.372-2.409-2.007c0.208-0.594,0.594-1.012,0.803-1.606c-0.394-1.125-1.071,0.583-1.606-0.401
		c1.403-2.125-1.318-3.111-2.007-4.818c-0.463-1.148,0.609-2.017-0.401-2.81c2.762-3.394,6.799-5.513,11.241-7.226
		c-0.065-1.249-1.787-3.36,0-4.015c1.65,0.627,0.606,2.657,0.803,3.613c0.44,2.139,2.667,3.375,4.817,4.416c0,0.937,0,1.874,0,2.811
		c0.506,0.966,2.135,0.809,2.81,1.606c1.055-0.284,0.792-1.884,1.606-2.409c-0.27-1.603-1.745-2.002-3.211-2.409
		c0.152-3.235-1.809-6.023-4.818-7.226c3.255-2.547,3.519,4.385,8.431,2.81c0.159-0.962-1.829,0.223-1.205-1.205
		c2.725-0.449,2.949,1.601,4.817,2.008c0.94,4.088,3.264,8.674,3.212,12.445c0.065,0.47,0.732,0.338,1.204,0.401
		c-0.619,1.003,0.035,4.747,0.402,6.825c0.375,2.127,1.232,3.584,1.605,5.219c-0.39,0.011-0.312,0.491-0.401,0.803
		c-0.594,0.465-1.012,0.465-1.606,0c-1.111,2.635-6.709,0.785-6.825,4.416c-1.408-0.465-2.606-1.141-4.015-1.606
		c-3.386,2.985,0.799,6.252,2.811,8.431c1.553,0.215,1.959-0.716,3.613-0.401c0.282,1.486-1.716,0.692-2.007,1.606
		c0.684,1.189,2.549,1.198,4.015,1.606c-0.018,1.222,0.848,1.561,1.205,2.409c2.498,0.215,5.939,3.192,8.029,1.204
		c-2.692-1.59-5.96-2.604-6.423-6.423C69.266,40.043,74.162,44.423,76.202,41.116z M107.114,46.736
		c-0.944,2.016-1.774,4.104-2.007,6.423c-2.056,2.263-3.565,7.082-3.613,7.227c0.404-1.215-1.022,1.515-0.401,1.204
		c1.223-0.611,0.895-1.752,0.803-1.605c2.738-4.366,6.334-12.249,8.029-16.862C108.179,43.053,107.713,45.457,107.114,46.736z
		 M58.136,22.247c0.65,0.657,2.521,0.484,2.409-0.803C59.033,21.237,58.716,20.937,58.136,22.247z M113.136,35.496
		c2.833-0.532,2.646-3.876,3.613-6.022c0.975-2.163,2.83-4.133,3.211-6.423c-0.542-0.126-0.767-0.572-1.606-0.402
		C116.774,27.09,114.534,30.871,113.136,35.496z M60.143,25.86c-0.459,1.263,0.63,0.976,0.803,1.606
		c-0.022,0.513-0.515,0.556-0.402,1.204c1.345-0.127,2.531-0.413,3.212-1.204c-0.877-0.059-0.862-1.012-0.803-2.007
		C61.65,25.226,61.086,25.732,60.143,25.86z M60.143,45.934c1.258-0.843,1.291-0.584,3.212-0.401
		c0.372-2.112-2.889-0.591-3.613-1.606C59.577,44.894,60.475,44.799,60.143,45.934z M60.544,55.568c1.338,0,2.677,0,4.015,0
		c-0.217-1.79-3.012-1.002-4.015-2.007C60.544,54.23,60.544,54.899,60.544,55.568z M69.778,56.372
		c-1.175,0.104-1.233-0.908-2.409-0.803C66.844,57.271,69.606,57.736,69.778,56.372z M65.362,62.394
		c1.467,0.272,2.227,1.252,2.81,2.409c1.021-0.049,1.557-0.584,1.606-1.606c-1.289,0.071-2.586-0.444-3.613-1.606
		C66.161,62.121,65.461,61.958,65.362,62.394z M94.268,108.562c1.405-0.334,1.633-1.846,1.606-3.613c-0.402,0-0.803,0-1.205,0
		C94.728,106.692,93.54,107.189,94.268,108.562z M93.063,110.167c-0.137,1.068-1.491,0.918-1.606,2.008
		c1.044,1.081,1.211-0.491,2.409-0.401c-0.018,0.553,0.189,0.882,0.401,1.204c4.608,0.635,9.083,2.079,14.051,1.204
		c-0.747-1.817,1.443-0.697,1.605-1.605c-3.504-1.345-9.653-0.981-14.051-3.212C95.77,111.332,94.065,111.044,93.063,110.167z"/>
	<path fill-rule="evenodd" clip-rule="evenodd" d="M381.313,27.065c-1.094,0.369,0.561,1.255,0,2.409
		c-3.015-0.885-6.339-1.085-8.029,1.204c0.528,1.058,1.318,1.231,2.409,0.803c-0.014,2.405-2.507,3.526-1.205,6.022
		c0.625,1.427-1.363,0.242-1.204,1.204c0.731,0.89,2.979,2.354,4.416,1.205c1.313,1.737-1.818,2.785-2.811,4.817
		c-1.261,0.21-2.239,0.705-3.211,1.205c1.332,1.997,2.941-1.143,4.817-2.007c1.647-0.759,5.587-0.668,3.613-2.007
		c0.365-1.099,1.406,0.712,2.007-0.401c0.141-1.913-2.276-2.847-1.204-4.417c2.244-0.504,1.239,2.24,2.408,2.811
		c2.46-1.239,4.142,2.011,6.825,0.401c0.181-2.054-1.1-2.647-1.204-4.416c1.743-0.137,2.106,1.105,2.408,2.409
		c1.433-0.261,0.015-2.387,0-3.613c1.369-0.03,1.189,1.488,1.205,2.811c0.838-0.76,0.223-1.719,0.401-2.811
		c0.065-0.401,0.787-1.8,0.803-1.605c-0.198-2.427-2.582-3.283-3.212-5.621c4.773,1.173,6.739,7.393,4.817,12.847
		c-2.308,2.596-7.821,3.954-10.036,0.401c-0.506,1.683,0.344,3.098,0.401,5.219c-2.803,5.156-6.717,11.616-10.84,16.46
		c-0.704,0.828-1.011,1.735-1.605,2.409c-0.449,0.509-2.916,2.296-3.212,4.014c-0.6,3.487,3.915,5.021,2.008,9.234
		c1.34,0.801,2.094,2.188,3.613,2.81c0.225-2.327-2.054-7.016,1.605-8.029c1.564-0.092,2.082,0.863,3.212,1.205
		c5.129-0.881,9.311-3.386,12.847-6.424c2.38-2.045,7.264-3.593,10.84-6.022c2.085-2.866,5.997-3.905,8.431-6.423
		c-2.325-2.011-7.157,0.824-9.234-1.204c0.081-5.272,5.167-5.54,7.628-8.431c3.453-0.538,5.933,1.199,8.431,0.803
		c2.8-0.444,3.979-3.525,6.825-4.015c1.37,0.102,1.929,1.015,3.613,0.803c0.665-1.184-0.636-1.345-0.803-2.409
		c-0.662-4.202,2.414-7.591,5.62-8.832c-1.123-2.797,1.377-2.955,0-5.621c3.238,0.108,3.158,2.3,2.811,5.219
		c-2.663,2.019-7.403,3.196-6.022,8.029c1.07,0,2.142,0,3.212,0c1.074,1.066,1.488,2.793,2.811,3.613
		c2.665,0.658,2.899-1.115,4.817-1.204c-0.63,2.629-4.872,2.711-6.825,2.81c-0.383-1.758-0.946-3.336-2.007-4.416
		c-1.143,0.731-1.542,2.206-2.409,3.212c-1.276,1.352-5.501,1.608-4.015,4.416c2.729-1.018,4.177-3.317,6.825-4.416
		c1.403,0.919-1.255,1.116-1.205,2.007c0.118,0.818,1.087,0.787,1.205,1.605c6.092,0.874,8.524-1.914,10.839-4.817
		c0.236-1.236,0.104-2.841,1.606-2.81c0,0.803,0,1.605,0,2.409c3.214-0.43,6.6,0.429,6.824-3.613
		c0.062-1.802-1.804-1.675-3.612-1.606c-0.04-1.244,0.182-2.227,0.803-2.81c-0.38-1.494-3.436-0.312-3.212-2.409
		c1.664-0.46,1.564,0.844,2.811,0.803c-0.501-3.01-4.061-5.168-7.227-5.219c-1.737-0.028-2.881,1.849-4.416,0.803
		c4.41-5.613,15.993,0.125,14.452,7.226c0.591,1.15,1.973,1.507,2.409,2.811c-0.219,6.023-7.234,4.21-10.036,6.022
		c-0.187,1.257,0.349,1.792,1.605,1.606c1.053,2.41,2.052,6.652,0,8.832c-0.055,5.46-2.838,10.172-0.803,14.452
		c1.216,2.56,3.881,3.934,5.62,6.825c-0.309,1.513,0.49,1.919,0.401,3.212c2.419,2.276,5.664,3.037,11.241,2.408
		c9.399-1.059,19.79-7.515,25.693-14.051c0.983-1.089,1.682-2.879,2.811-4.416c0.898-1.224,2.413-2.363,3.212-3.613
		c0.322-0.505,0.057-1.423,0.401-2.007c1.153-1.958,3.402-5.001,4.416-7.627c2.066-5.358,2.777-12.698,1.204-18.869
		c-0.845-3.313-3.309-5.611-5.62-8.029c4.881-1.711,7.58,5.833,8.431,10.84c1.012,5.956-1.131,11.417-1.205,15.657
		c-2.332,3.678-3.718,8.378-6.021,12.044c-1.371,2.182-2.74,3.14-4.416,5.219c-1.168,1.449-1.968,3.682-3.613,5.219
		c-8.587,8.021-18.747,14.702-33.321,13.248c-0.255,5.072,4.371,5.265,3.613,10.84c0.788-0.181,1.771,0.845,2.81,0.803
		c2.097-0.085,3.556-1.582,5.22-1.605c2.354-0.033,3.625,1.485,6.824,2.007c0.997,0.163,2.436-0.358,3.613,0
		c2.965,0.902,4.654,3.416,4.416,7.227c-0.801,0.403-0.633,1.775-2.007,1.605c-0.861-2.083,0.167-6.055-1.606-7.226
		c-3.968,0.355-6.168-1.059-9.233-1.606c-0.492,1.582,1.408,2.16,1.606,0.803c0.928,0.544,1.33,1.614,3.211,1.205
		c3.266,3.387,1.137,11.598,1.205,14.452c-1.854,0.06-3.311,1.137-4.817,0.401c0.502,2.451,3.628,0.032,5.62,1.205
		c2.479-1.67,2.045-6.252,4.015-8.431c2.801,0.362,0.408,3.407-0.401,5.62c-0.768,2.098-1.021,4.161-3.212,4.817
		c-1.429,0.09-2.406-0.271-2.811-1.204c-1.558,2.262-5.352,0.534-7.227-0.401c-0.3-2.04,0.4-3.079,1.606-3.613
		c1.149-0.079,2.19-0.05,2.007,1.204c4.293-0.885,4.138-4.594,4.818-8.431c-2.344-4.004-11.171,0.783-15.657-2.007
		c-1.271-0.066-1.342,1.066-2.811,0.803c-4.623-2.871-6.645-8.344-8.029-14.453c-0.349-1.553,0.98-1.428,1.204-2.408
		c-3.004,0.345-4.896,5.271-9.635,5.219c-1.621,1.499-4.682,3.103-7.628,2.007c-1.943,1.938-6.017,1.745-6.423,5.22
		c-5.467,3.098-11.5,5.63-14.052,11.643c-1.704,0.303-3.077,0.937-5.219,0.803c-1.404-0.394-1.899-3.444-4.416-6.825
		c-1.012-1.358-2.829-2.499-3.613-3.613c-0.314-0.446-0.066-1.167-0.401-1.605c-1.677-2.192-4.668-4.011-0.803-6.022
		c1.474-0.001,1.538,1.406,2.408,2.008c0.153,1.491-1.627,1.05-1.204,2.811c1.362,1.042,1.933-3.369,4.015-1.606
		c0.623,1.694-2.229-0.088-1.605,1.606c0.486,1.677,1.87,0.187,2.007-0.804c0.759,0.045,0.278,1.327,1.204,1.205
		c1.096-0.363-1.221-0.898,0-1.606c1.879,0.664,3.045,2.041,3.212,4.416c1.914-0.04,2.257,1.49,3.613,2.008
		c0.922-0.315,0.391-2.485-0.803-2.008c3.835-4.328,9.238-7.088,12.044-12.445c0.967,0.165,0.872-0.733,2.007-0.401
		c-1.317-0.985,0.772-2.542,0.804-4.015c0.128-6.087-4.8-10.838-12.044-7.628c-0.474,1.72,0.029,1.638,0.401,3.212
		c2.262,0.656,1.435-1.777,3.613-1.204c1.108,4.314-6.021,3.524-6.424,0c0.617-2.934,4.12-4.804,7.227-4.817
		c4.828-0.022,7.321,3.576,9.233,6.423c0.432,3.644-0.354,6.069-2.007,7.628c6.022-1.337,10.383-4.337,14.854-7.227
		c-1.009-6.218-7.873-6.579-10.036-11.642c2.159,1.934,2.422-0.084,4.817,0.401c-0.982-3.19,2.509-4.84,4.015-6.825
		c-2.168-0.154-5.497,1.992-4.817,6.021c-2.348,0.287-2.82,0.187-4.416-0.803c-1.484,0.22-2.682,1.44-4.015,1.606
		c-4.452,0.554-9.625-2.25-13.65-1.606c-1.29,0.207-1.863,1.479-3.212,2.008c-2.965,1.16-6.717,0.433-8.832,1.204
		c-2.088,0.762-9.554,6.836-10.839,9.635c-0.562,1.223-0.057,2.594-0.804,3.613c7.747,5.002,19.547,8.506,31.314,6.022
		c0.299,1.235-1.102,0.771-0.803,2.007c-5.084,1.182-10.034,1.095-14.854,0.401c-7.312-1.051-13.6-4.874-21.277-4.817
		c-2.501-3.387-7.653-4.123-10.839-6.825c-0.745,1.897,1.184,3.024,1.605,5.22c0.309,1.602-0.438,3.64,0,5.219
		c0.688,2.479,3.856,4.25,2.408,6.825c1.746,0.302,2.979-0.838,4.417-0.804c1.977,0.048,4.974,2.283,8.028,2.811
		c0.633,0.109,1.394-0.175,2.008,0c1.691,0.481,3.103,1.837,6.424,1.204c0.401,0.535,0.661,1.212,1.204,1.606
		c0.106,4.79-3.888,5.48-4.817,9.233c-0.721,0.051-0.847-0.491-1.606-0.401c-0.258-4.675,3.719-5.114,5.22-8.029
		c-0.467-1.423-3.296-2.119-4.818-1.204c-1.068,1.187,1.491,1.179,0.804,3.211c-5.002,0.619-2.778,8.464-8.431,8.432
		c-1.146-1.108,0.785-0.917,1.204-1.606c-0.1-0.436-0.799-0.272-0.803-0.803c-1.959-0.067-0.495,1.412-1.205,2.007
		c-1.388,0.326-1.694-0.749-2.408,0c0.306,1.033,0.975,1.702,2.007,2.008c3.474-1.093,5.457-0.939,8.431-0.803
		c0.071,1.409-1.355,1.32-1.605,2.408c-3.384-1.766-6.267,0.844-9.635-0.803c-1.764-3.926,2.461-6.617,6.021-5.219
		c1.515-1.332,3.708-4.298,2.007-6.424c-4.039,1.804-7.385-0.919-12.445-0.401c-2.065-0.197-2.094-2.274-4.416-1.204
		c-5.938-5.436-4.492-18.257-11.642-22.482c-4.678,0.811-5.228,5.747-10.84,5.621c-0.502,0.836-0.983,1.693-1.605,2.408
		c-4.513,0.156-7.162,2.99-6.825,6.825c-3.105,2.382-2.18,8.793-4.817,11.643c0.456,2.522-0.205,2.741-0.401,5.219
		c-2.369,4.052-8.575,0.897-12.847,1.606c-1.213,0.2-2.104,1.523-3.212,1.605c-2.602,0.192-4.548-0.951-5.621-2.409
		c-1.43,0.759-3.031,0.369-3.211-1.204c-1.172,0.829-1.512,1.294-3.212,0.803c-0.579-0.893-1.009-1.936-0.803-3.613
		c1.427-0.786,1.459,0.524,3.211,0.401c-0.497,1.089-1.549,1-0.803,2.409c2.097,0.356,1.607-1.872,2.008-3.212
		c2.354,0.214,2.465-1.817,2.81-3.613c-4.977-2.003-9.332-0.444-16.46-0.803c-0.358-0.711-1.629-0.512-1.204-2.007
		c-0.623,0.092-1.873,1.543-2.408,0.401c-1.208,0.404-0.712-0.895-0.804-1.606c-5.99-1.235-5.446-9.006-8.431-13.248
		c-0.055-1.393,2.034-0.643,2.008-2.007c-0.467,0.065-0.715-0.089-0.803-0.401c-0.471-1.195-0.499,1.316-1.205,1.204
		c-1.734-0.509-3.854-0.348-5.62,0.803c-0.282,0.185-0.569,1.122-0.803,1.204c-2.994,1.054-6.21,0.111-9.233,1.205
		c-0.545,0.124-0.333,1.005-0.402,1.605c-3.064,0.28-4.062,2.629-4.416,5.62c-3.077-0.936-2.287,1.995-4.416,2.008
		c8.342,2.614,20.363,0.177,28.103,0c-1.71,1.874-8.046,2.884-11.643,3.212c-6.202,0.565-14.144,1.059-16.861-2.811
		c-2.776,4.479-11.201,2.051-12.043-2.409c-1.299-0.496-0.307,1.3-1.606,0.804c-5.816-2.883-11.008-6.39-15.657-10.438
		c-2.021,1.668,1.079,4.316,2.007,5.62c-0.065,0.471-0.732,0.339-1.204,0.402c0.662,0.864,2.412,2.212,3.613,2.81
		c1.084,0.539,2.18,0.645,4.015,0.803c4.012,2.947,6.715,7.202,12.044,8.833c2.364,3.831-2.002,5.736-6.022,5.62
		c-2.195,0.481-2.371,2.981-4.416,3.613c-2.125-0.46-2.976-0.183-5.219,0c-0.665-2.413-4.313-1.843-3.613-5.621
		c4.627,0.346,7.982-0.582,10.839-2.007c-3.715-3.913-9.921-5.335-13.65-9.233c-5.613,0.526-5.67-3.832-6.825-8.832
		c-0.381-1.653-1.573-3.082-2.007-4.417c-0.552-1.696-0.061-3.359-1.606-4.416c-1.034,0.438-1.929,1.015-2.409,2.008
		c-1.709-0.565-3.771-0.778-4.817-2.008c-1.058,0.28-0.849,1.828-2.007,2.008c-1.982,0.376-2.723-0.489-3.613-1.204
		c-1.062,0.826-3.608,1.806-4.817,1.204c-1.14,5.15-8.45,4.129-10.438,8.431c-4.409-0.094-4.931,0.413-7.628,2.409
		c-1.854,1.372-5.293,4.808-7.628,0.803c-1.08-1.853-1.584-6.218-2.81-8.431c-0.991-1.79-4.062-5.628-3.613-8.431
		c0.434-2.713,3.907-4.278,6.423-4.015c0.92,5.503,1.566,11.281,5.621,13.649c6.183-1.414,10.206-8.079,16.059-11.643
		c3.527-2.147,9.25-2.043,15.657-2.408c0.703-0.04,2.46,0.119,2.811,0c3.466-1.184,4.633-6.425,2.409-8.833
		c-0.284-2.158,0.458-3.289,0.803-4.817c-1.043-1.081-1.21,0.491-2.409,0.401c-0.337-0.466-0.529-1.077-0.401-2.007
		c-1.135-0.332-1.04,0.566-2.007,0.401c-1.515-3.57-4.241-5.929-4.817-10.438c-0.429-0.913-1.218,1.153-2.409,0.803
		c-7.604-3.637-10.552-11.93-16.058-17.664c-2.601,0.058-4.133-0.953-6.825-0.803c-3.628-5.816-15.837-7.385-24.087-4.817
		c-0.578,0.091-0.14,1.198-0.803,1.205c-3.127-0.77-2.684-3.202-2.007-6.423c0.467-2.223,0.912-2.934,1.606-4.417
		c1.069-2.283,1.724-6.805,4.416-6.825c0.533,0.672,1.064,1.345,0.803,2.81c6.243,6.336,16.697,8.461,26.496,11.241
		c0.409,2.282-0.991,2.755-2.409,3.211c-0.194-1.264,1.232-0.909,0.803-2.409c-1.761-0.422-1.319,1.358-2.811,1.205
		c0-0.535,0-1.071,0-1.606c-2.786,0.098-0.586,2.731-1.204,3.613c-1.267,0.196-1.418-0.724-2.811-0.401
		c2.412,3.342,8.43,2.375,12.044,3.613c-0.676-1.599-2.786-1.764-4.015-2.81c0.147-1.458,0.935-2.277,2.007-2.81
		c5.918,0.956,12.233,4.721,17.263,4.015c-0.185,1.555-1.968,1.511-2.409,2.81c0.416,1.726,0.787,3.496,1.606,4.817
		c1.261,0.198,1.061-1.384,2.007-0.401c0.133,1.471-0.446,2.23-0.803,3.212c1.213-0.542,0.984,1.679,2.007,2.409
		c1.235-1.919-0.359-4.447,0-6.825c0.926-0.796,0.446,0.101,1.204,0.402c0.6-1.098-0.031-3.818-0.401-5.219
		c-0.56-1.262-1.981,0.552-2.409-0.401c0.291-1.448,1.685-1.795,3.613-1.606c0.372,1.575,0.875,1.492,0.401,3.212
		c5.257,0.713,12.233,4.942,16.861,2.409c1.395,0.868,1.452,2.917,1.606,4.015c0.126,0.944,1.903,0.238,1.606,1.606
		c-1.265,0.45-0.909,0.036-2.409,0c0.542,3.409,4.06,2.65,6.022,2.81c1.208-0.56-0.835-2.078,0.401-2.81
		c1.551,0.322,1.335,2.412,2.409,3.211c1.778,0.773,4.735,0.515,5.219-1.204c0.46-1.665-0.844-1.564-0.803-2.811
		c0.819-0.806,0.787,0.178,1.606,0.401c0.554-1.898-1.258-2.639-0.401-3.613c0.706,0.097,0.915,0.69,0.803,1.605
		c0.739-0.599,1.409-1.268,2.007-2.007c0.092-1.564-0.863-2.081-1.205-3.211c-1.338,0-2.676,0-4.015,0
		c0.611-1.262,1.34-2.407,1.606-4.015c1.334-0.13,0.436,1.973,2.409,1.205c1.87,3.818,5.646,3.964,4.416,11.642
		c-0.021,0.137-0.682,0.677-0.401,1.205c-2.15,3.162-5.463,1.547-9.233,2.007c2.075,6.982-3.034,9.782-7.227,14.051
		c-0.631,0.643-0.985,1.802-1.605,2.409c-1.524,1.489-2.722,1.646-4.015,3.613c-1.004,1.529-0.939,2.174-1.606,4.417
		c0.988,2.438-0.956-0.244-1.205,0c-1.197,1.175,2.505,2.385,2.811,5.219c0.287,2.667-0.627,3.296-2.409,5.219
		c2.471,4.889,7.083,7.638,10.438,11.643c3.34,1.209,4.964,4.136,8.029,5.62c0.115-2.129-2.75-4.739-4.416-6.423
		c0-1.473,0-2.944,0-4.417c2.326-0.483,1.53-4.09,4.416-4.015c-0.53,1.803-1.168,2.819,0,4.416c-1.157,1.164-1.255-0.781-2.81-0.401
		c0.588,1.028,0.472,2.622,0,4.417c3.018,3.138,5.524,6.787,8.431,10.036c2.19-0.276,3.314,0.74,5.62,1.204
		c0.764-0.79-2.284-1.175-1.605-3.212c1.831-0.226,1.698,1.514,3.613,1.205c0.651-1.346-1.656-1.668,0.401-2.811
		c-0.479-0.993-1.374-1.569-2.409-2.007c-1.781-0.177-0.993,2.219-3.211,1.605c-1.896-1.985-4.214-3.548-5.219-6.424
		c2.977,0.503,3.402,3.557,6.022,4.416c5.054-0.968,5.137-6.906,9.635-8.431c1.375-5.048,5.33-7.517,11.241-8.029
		c-1.344-3.191-5.42-4.472-5.62-8.431c-0.115-2.268,1.896-3.573,1.204-6.021c1.545,1.344,0.229-2.744,2.007-2.409
		c0-1.071,0-2.141,0-3.212c1.613-1.399,4.679-3.257,4.416-5.219c-7.19-3.114-9.979-10.63-12.847-18.066
		c-3.954-1.533-4.795-6.178-8.431-8.029c-4.958-0.394-7.544-3.162-13.649-2.409c-1.502,0.371-2.109,1.638-3.613,2.007
		c-2.622-0.188-3.078-2.542-4.817-3.613c-0.276-7.105,2.082-14.679,10.438-14.453c0.616,2.195,3.093,2.528,2.81,5.621
		c2.854,3.836,7.183,6.199,11.241,8.832c4.057-1.677,3.663,2.853,7.227,2.81c0.409,0.528,0.394,1.48,0.803,2.007
		c3.965,0.986,7.257,2.646,10.438,4.417c2.198,0.056,3.819-0.463,5.621-0.803c2.827,1.856,5.74,3.627,7.628,6.423
		c1.229-0.778,1.001-3.013,2.007-4.015c2.038-1.654,4.6-0.312,5.62-2.81c1.176-0.104,1.233,0.908,2.409,0.803
		c0.982-0.684-1.477-2.76,0-4.015c2.257-0.31,1.038,1.328,1.605,2.007c0.834-0.103,0.11-1.764,0.804-2.007
		c1.129,0.477,1.492,1.719,2.408,2.409c6.557-3.068,12.505,7.162,8.029,12.043c-0.309,0.337-1.298,0.81-1.605,1.205
		c-1.17,1.497-1.669,3.581-5.621,2.81c-0.885,1.39-1.261,3.289-3.211,3.613c1.893,6.39-3.883,8.37-5.22,12.847
		c-1.135,0.332-1.04-0.566-2.007-0.401c0.058,2.215-2.129,4.535-1.606,8.431c-0.535,0-1.07,0-1.605,0
		c2.023,2.228,5.811,4.485,4.015,9.233c3.125,4.235,7.68,7.041,12.044,10.036c0.643-1.07,2.206-2.395,2.408-4.015
		c0.266-2.112-1.029-3.075-0.803-4.416c5.51,0.594,1.538,7.404,0,9.234c4.875,3.658,14.658,3.743,22.081,3.612
		c-0.056,3.143-6.23,3.151-10.037,2.811c-5.055-0.453-11.481-2.762-14.854-4.416c-2.192,0.752-2.823,3.064-6.022,2.811
		c0.409-2,3.284-1.533,4.015-3.212c-0.683-1.19-1.957-1.79-3.613-2.008c-1.674-2.072-3.433-4.061-6.021-5.219
		c-1.064,2.326,3.28,2.43,1.605,5.621c1.178,1.632,2.824,2.796,2.409,6.021c3.422,3.214,8.91,0.445,14.051,2.409
		c0.573,0.219,0.893,1.06,1.606,1.204c1.501,0.303,3.571-0.41,5.219,0.401c1.739,2.246,0.308,6.193,0,8.832
		c-2.678-1.015-0.045-4.867-1.205-7.227c-1.026-1.917-5.202-0.686-6.824-2.007c-0.834,0.73-0.081,3.27,0.803,3.613
		c0.855-2.232,0.414-0.026,1.605,0.401c1.091,0.391,0.646-2.182,1.606-0.401c-0.646,1.628,0.083,4.633-1.204,5.62
		c2.273-0.267,3.726,0.288,4.416,1.605c3.492-0.388,7.738-0.022,10.438-1.204c1.451-5.689,1.662-13.705,4.817-18.868
		c-0.463-4.393,2.928-5.496,5.621-7.628c1.725-1.366,4.461-3.678,6.824-4.416c0.119-1.056-1.558-0.316-1.204-1.606
		c5.705-10.927-16.062-17.972-20.475-10.839c-1.766,2.854-1.085,7.806,2.811,8.03c1.562-0.043,0.69-2.521,2.007-2.811
		c1.427,0.046,1.616,1.328,1.606,2.811c-1.05,1.359-3.52,1.298-6.022,1.204c-3.05-1.772-4.695-5.871-2.408-9.635
		c5.042-8.299,25.245-3.673,25.693,7.226c0.062,1.52-1.08,2.815-0.803,4.817c6.04-3.831,14.729-3.598,14.854-12.043
		c0.014-0.895-0.621-1.152-0.803-2.007c-0.56-2.633,0.392-5.236,1.605-7.628c-1.748-2.132-2.652-5.108-4.015-7.627
		c-0.712,1.295-2.194,1.819-3.211,2.81c-2.279-1.594-4.684,0.813-5.621-1.204c-0.827,0.109-0.096,1.777-1.204,1.605
		c-1.074-0.264-1.202-1.474-2.007-2.007c0.835-5.587,2.506-10.34,6.824-12.445c-1.49-4.13-6.194-5.046-6.021-10.839
		c-7.097-0.302-12.087-4.722-18.468-4.416c-1.602-0.272-2.251-1.496-3.212-2.409c-4.421-0.543-9.158-2.59-14.051-1.606
		c-1.576,0.317-2.749,1.672-5.219,0.803c-1.557-6.014,2.014-13.382,7.628-14.854c1.266,3.521,2.986,6.276,6.423,8.431
		c0.551,0.345,1.452,0.1,2.008,0.401c0.682,0.37,1.027,1.324,1.605,1.606c0.659,0.321,1.692,0.05,2.409,0.401
		c3.932,1.927,8.307,4.538,11.642,5.621c4.1,1.33,8.439,1.758,11.643,4.015c1.685-0.959,5.663-1.325,5.621,1.606
		c4.2,1.254,6.819,0.585,10.438,1.204c0.463,0.475,0.454,1.419,0.401,2.409c1.423,0.853,3.513,1.037,4.817,2.007
		c2.05-1.301,4.015-4.812,7.227-3.613c1.713-0.429,2.017-2.266,4.015-2.409c1.04,0.433,0.938,2.006,2.811,1.605
		c1.128-0.818,0.266-2.101,0.803-2.81c2.222,0.455,4.258,1.095,4.015,4.015c-1.782,0.31-1.616-1.328-2.409-2.007
		c-0.925-0.123-0.445,1.16-1.204,1.205c-0.284,1.728,2.41,1.806,1.204,3.211c-1.218,0.147-0.833-1.308-1.204-2.007
		C383.285,28.214,382.818,28.225,381.313,27.065z M307.845,17.028c2.661-1.131,5.162-2.064,8.832-1.606
		c5.421,0.677,11.075,3.555,15.256,4.817c4.261,1.287,8.021,2.673,11.241,2.409c-10.886-4.638-24.712-6.335-30.11-16.46
		c-0.553,0.018-0.881-0.189-1.204-0.401C309.956,8.968,308.131,12.229,307.845,17.028z M234.779,22.648
		c1.421-0.217,0.987,1.422,2.409,1.205c3.824-2.283,7.397-10.042,4.817-14.854C235.533,9.485,234.47,15.381,234.779,22.648z
		 M156.494,24.656c1.786,0.109,3.382-1.311,5.621-1.605c3.384-0.445,8.336,0.229,12.044,0.803c2.639,0.409,5.698,2.55,7.627,0.401
		c-1.94-2.227-5.222-2.512-8.029-3.613c-2.737-1.074-5.481-2.677-8.431-3.212c-1.239-1.972-3.592-2.832-4.416-5.219
		c-0.401,0-0.803,0-1.205,0C158.363,16.086,156.96,19.903,156.494,24.656z M242.005,22.247c2.604-0.275,6.09-0.06,8.833,0.803
		c1.299,0.409,2.287,1.716,3.613,2.007c1.486,0.326,1.966,0.637,2.409,0.803c1.558,0.583,4.552,0.367,4.817,2.409
		c-1.245,0.041-1.918-0.491-2.811-0.803c1.51,2.767,6.364,0.859,5.621,7.226c1.371,0.165,0.51,1.084,2.007,0.401
		c0.367,0.704,0.138,2.003,0.803,2.409c0.717-1.907,1.086,0.598,2.008,0.803c0.904-2.893-5.861-5.13-2.811-8.832
		c4.496,2.061,9.498,3.616,13.248,6.423c0.006-0.798,1.096-0.511,0.804-1.606c-6.249-2.049-11.93-4.665-17.264-7.628
		c-0.091,0.711,0.405,2.011-0.803,1.606c0.261-1.465-0.271-2.138-0.803-2.81c-1.227-0.29-1.463,0.41-2.409,0.401
		c-0.718-0.753-1.434-1.51-2.007-2.409c-5.686-1.674-9.19-5.53-13.249-8.832C244.285,17.842,241.553,20.181,242.005,22.247z
		 M353.21,28.269c-1.198-0.407-2.568-0.644-3.613-1.204c0.965,1.99-0.284,3.235,1.606,5.219c1.393,0.322,1.543-0.598,2.81-0.401
		c1.354,1.863,2.947,5.611,4.818,5.621c-1.022-1.789-2.081-3.54-2.409-6.022c0.712-0.092,2.011,0.404,1.605-0.803
		c-1.97-1.776-3.064-4.429-5.219-6.022C352.826,25.978,353.487,26.655,353.21,28.269z M199.451,29.072
		c-2.875-0.953-5.538-2.112-8.832-2.409c-0.085-0.485-0.446-0.247-0.803,0c-0.313,0.089-0.467,0.336-0.401,0.803
		c4.156,2.134,9.332,3.248,14.854,4.015C203.643,29.732,201.137,29.631,199.451,29.072z M367.262,30.678
		c-3.867-0.686-7.181-4.057-11.241-3.211C359.73,28.31,363.517,31.208,367.262,30.678z M299.415,31.08
		c0.177,1.694,1.366,2.292-0.401,3.211c-1.308-0.768-2.622-1.353-1.204-2.81c-2.037-0.163-2.345,1.402-3.613,2.007
		c-2.306-1.49-3.661,1.414-4.015,3.211c1.642,0.091,3.11,0.66,4.817,1.606c-0.621,0.583-0.354,2.055-0.401,3.212
		c-0.803,0-1.605,0-2.409,0c0.294,2.124,2.445,3.587,4.416,2.81c0.188,1.701,3.976,1.439,5.22,0.803
		c-0.046-1.426-1.485-1.459-1.205-3.211c0.543-0.126,0.768-0.572,1.606-0.401c-0.053,0.989-0.061,1.934,0.401,2.409
		c1.515-0.552,3.324,0.377,5.219-0.401c0.344-2.01,0.935-2.217,0.401-4.417c-0.706-0.231-2.358,0.485-2.408-0.401
		c0.589-1.721,3.104-0.403,4.015,0c0.401-1.437,0.056-2.038,1.605-0.803c-0.095-6.742-5.233-8.405-10.036-8.431
		C301.704,30.959,300.014,30.475,299.415,31.08z M364.452,43.926c0.038-0.631-0.054-1.392,0.803-1.205
		c4.062,1.383,5.755-1.631,10.438-0.803c-1.217-1.594-3.864-1.756-4.416-4.015c0.22-1.602,0.22-1.209,0-2.811
		c-1.372,0.301-0.511-1.631-2.008-1.204c-2.791,1.565-6.921,1.733-9.635,1.606c-0.029-1.367,1.181-1.496,2.007-2.007
		c1.462,0.693,5.388,1.703,5.621-0.803c-1.005-1.011-1.577,0.461-2.811,0.402c-0.122-2.688-3.33-2.291-5.219-3.212
		C357.014,35.061,361.198,40.609,364.452,43.926z M205.874,44.328c1.569-4.563-1.117-8.213-2.409-11.241
		c-3.159-0.99-6.216-2.082-9.635-2.811C196.449,36.356,203.666,37.838,205.874,44.328z M273.32,40.714
		c3.015,0.465,5.713,1.245,7.628,2.811c1.022-1.794-0.234-3.071-0.401-4.818c-2.561-0.176-3.122-1.927-3.212-3.613
		c-4.201-0.884-7.088-3.083-10.84-4.416C267.347,35.446,272.364,36.049,273.32,40.714z M288.576,49.547
		c-0.416-2.42-1.868-6.487-3.212-9.234c3.186-3.941-2.019-7.176-5.22-8.431c2.011,2.997,1.415,6.5,2.008,10.438
		c1.9-0.187,0.596,0.349,0.803,1.606c0.69,0.158,1.029-0.596,1.204,0c-0.875,0.839,0.201,1.146,0,2.409
		c1.428,0.624,0.243-1.364,1.205-1.205c-0.808,3.638,1.779,1.412,1.204,4.818C287.829,49.673,288.208,49.994,288.576,49.547z
		 M372.08,34.291c-0.293-1.095,0.798-0.808,0.803-1.606c-1.641,0.169-1.623-1.321-3.613-0.803
		C369.602,33.289,370.87,33.761,372.08,34.291z M212.297,33.488c1.92,0.63,5.479,1.737,7.227,1.204
		C216.865,34.996,214.086,31.407,212.297,33.488z M216.312,49.145c0.468,0.602,1.16,0.982,1.205,2.007
		c0.759,0.09,0.885-0.452,1.605-0.401c0,0.535,0,1.071,0,1.606c1.393,0.055,0.643-2.034,2.007-2.007
		c2.912-1.504,6.736-2.096,8.833-4.416c-3.702-0.222-5.318,1.641-8.029,2.409c-0.068-0.601,0.143-1.481-0.402-1.606
		c-0.813,0.525-0.551,2.125-1.605,2.409c-3.596,0.246-5.656-3.17-6.022-4.817c3.686,0.341,6.238-0.453,8.832-1.205
		c0.798,0.005,0.511,1.096,1.606,0.803c1.287-0.989,4.832,0.281,5.219-1.606c-0.174-0.416-0.345-2.274-0.803-2.81
		c-2.552-2.987-10.839-1.841-14.453-4.015c-0.848,1.025-1.971,1.775-3.212,2.409C210.561,42.799,213.83,48.052,216.312,49.145z
		 M228.757,37.904c0-0.535,0-1.071,0-1.606c-1.753,0.526-3.627-0.892-4.416,0C226.137,36.51,226.876,37.778,228.757,37.904z
		 M292.188,40.714c0.337-0.466,0.53-1.076,0.401-2.007c-1.507-0.099-3.94-1.013-5.219-0.803
		C288.716,39.102,290.141,40.22,292.188,40.714z M355.62,43.123c1.178-1.379-1.229-1.744-0.803-3.613c-0.402,0-0.804,0-1.205,0
		C354.037,40.959,354.231,42.638,355.62,43.123z M286.568,40.313c-0.164,0.967,0.733,0.873,0.401,2.007
		c1.713-1.253,3.778,1.989,4.416-0.803C289.395,41.619,288.666,38.822,286.568,40.313z M294.597,48.342
		c-1.29,0.353-0.55-1.323-1.605-1.205c-0.767,0.974-2.015,1.465-3.212,2.007c0.934,0.271,0.302,2.106,2.007,1.606
		c0.968-2.774,5.848-2.416,6.825-4.015c-0.66-0.678-2.179-0.498-2.811-1.204C295.196,46.265,295.375,47.782,294.597,48.342z
		 M424.671,51.554c0.513,0.022,0.556,0.515,1.204,0.402c-0.524-1.729,1.139-1.27,1.605-2.007c-0.86-5.103-6.799-3.387-9.233-0.803
		c0-0.401,0-0.803,0-1.204c-2.542,1.583-4.612-1.715-6.825-0.402c1.177,2.303,6.421,0.539,6.022,4.417
		c2.051,0.312,1.022-2.457,2.408-2.811c-0.807,2.681,1.725,2.023,2.008,3.613c-0.015,1.324-1.142,1.535-2.409,1.606
		c-3.233,2.922-6.187,6.125-10.438,8.029c-0.24,0.715,1.177,1.667,0,2.007c-2.124-0.152-3.136-1.415-4.817-2.007
		c-7.027,4.482-13.02,9.998-21.68,12.847c1.223,2.525,2.549,4.945,4.416,6.825c2.465-8.241,11.536-9.876,16.059-16.059
		c-0.937-0.134-1.729-0.412-2.007-1.205c1.214,0.125,3.122-0.446,3.212,0.803c0.258,1.731-1.684,1.261-1.606,2.811
		c2.03-0.762,0.951-0.037,1.606,1.205c3.143,0.332,3.499-2.122,6.423-2.008c0-0.535,0-1.07,0-1.605
		c2.49-0.247,3.011-2.038,5.62-1.205c-0.276-2.623-3.579,0.222-4.817-1.205c3.196-1.889,9.892-0.279,13.249-2.007
		c-0.696-2.017-1.797-4.081-2.008-6.022c-0.13-1.193,0.722-1.274,0.803-2.409c-0.008,0.106-0.765-0.227-0.803-0.401
		c-0.161-0.735,0.348-2.159,0.401-2.409c0.56,0.511,0.175,1.966,1.204,2.007c1.363-2.367-1.513-3.54,0-4.416
		C425.655,48.865,425.525,50.192,424.671,51.554z M364.853,48.342c1.224,0.02,2.044-0.365,2.409-1.205
		C366.502,46.426,364.454,46.689,364.853,48.342z M436.313,55.97c1.712-1.902,2.891-4.336,4.015-6.825
		C437.332,49.5,436.007,53.65,436.313,55.97z M406.204,61.992c2.331,0.787,5.116-2.019,7.227-3.613
		c0.934-0.706,2.253-1.62,3.212-2.409c0.784-0.646,3.182-1.909,1.605-2.811C413.899,55.77,409.269,58.099,406.204,61.992z
		 M222.735,56.773c1.231,1.563,3.782,0.191,4.817-0.803C226.228,55.143,224.272,56.538,222.735,56.773z M362.845,56.372
		c1.322,1.604,4.928,2.11,6.022,0C367.122,56.073,364.69,55.892,362.845,56.372z M433.101,55.97
		c-1.475,1.797-4.29,3.526-6.423,4.416c-0.619,0.258-1.766-0.341-1.605,0.803c0,0.268,0,0.535,0,0.803
		c4.019-1.201,7.423-3.016,10.036-5.621C435.176,55.501,433.685,56.189,433.101,55.97z M288.173,62.394
		c0.002,0.403-0.325,0.478-0.401,0.803c2.017-0.62,4.172,1.322,4.817-0.401c-1.629-1.772-1.928-0.429-4.014,0
		c-1-2.212-2.747-3.677-4.417-5.219C284.745,59.935,285.611,62.013,288.173,62.394z M217.918,60.386
		c1.257,0.186,1.792-0.349,1.606-1.606c-0.536,0-1.071,0-1.606,0C217.918,59.315,217.918,59.851,217.918,60.386z M419.05,65.204
		c0-0.535,0-1.07,0-1.606c-0.535,0-1.07,0-1.605,0C417.258,64.854,417.793,65.39,419.05,65.204z M276.933,75.642
		c0.839,1.262-0.365,2.24,0.401,3.212c1.634,0.162,1.583-1.361,2.408-2.008c-0.711-0.091-2.01,0.405-1.605-0.803
		c0.989-0.053,1.935-0.061,2.409,0.401c0.32-0.75,0.67-1.47,0.803-2.408c-1.585,0.514-0.972-1.17-2.008-1.205
		C279.548,74.406,278.645,75.985,276.933,75.642z M386.532,86.481c-1.978-5.383-3.724-10.997-10.036-12.044
		C375.41,81.783,381.657,87.312,386.532,86.481z M169.341,80.86c3.019,3.94,4.612,9.306,6.825,14.052
		c0.759-0.09,0.886,0.452,1.606,0.401c3.044-1.098,1.957-5.96,6.022-5.219c0.521-1.486,1.59-2.426,2.811-3.212
		c-2.595-2.017-4.623,2.286-7.628,2.408c-3.495-1.857-4.146-6.559-6.825-9.233c0-0.803,0-1.605,0-2.408
		c-0.848-0.357-1.187-1.223-2.409-1.205C169.554,78.428,170.129,78.934,169.341,80.86z M220.327,80.459
		c1.864,1.01,3.087-0.424,4.416-0.401C224.469,77.595,220.965,79.591,220.327,80.459z M287.772,86.08
		c2.379,1.562,3.493-1.521,4.817-1.205C291.757,82.023,288.29,84.84,287.772,86.08z M467.627,98.927
		c-0.753-0.452-0.853-1.557-1.606-2.008C464.685,97.944,466.449,100.504,467.627,98.927z M302.626,98.525c0,0.401,0,0.803,0,1.204
		c1.265,0.45,0.909,0.036,2.408,0C305.583,97.928,303.418,97.78,302.626,98.525z M307.444,101.335
		c0.069-1.427-0.846-3.944-2.007-2.81C306.911,98.657,305.793,101.38,307.444,101.335z M309.853,102.139
		c-0.167-1.707-0.502-3.245-2.008-3.613C308.129,100.115,308.464,101.653,309.853,102.139z M399.378,99.729
		c-0.298,2.306,2.141,1.875,3.212,2.811c-0.333,1.264,1.78,3.206,2.811,4.817c0.334,0.522,0.455,1.84,0.803,2.007
		c1.685,0.81,3.808-0.05,4.416-2.81c-2.189-0.634-3.304-2.093-3.212-4.015c-0.067,0.468-0.635,0.436-1.204,0.401
		c-0.97-1.038-0.02-3.995-2.007-4.015C403.413,100.816,401.348,99.633,399.378,99.729z M243.611,107.357
		c-1.026,2.186-4.095,2.328-6.423,3.212c-0.068,0.601,0.144,1.481-0.401,1.605c-1.959,0.128,0.387,0.634,1.204,0.401
		c-0.005,0.798-1.095,0.511-0.803,1.605c2.772,0.632,2.742-1.54,4.015-2.408c1.954-1.392,5.65-1.041,7.227-2.811
		c-1.265,0.194-0.301-1.841-1.205-2.007c-1.343,2.365-2.471-1.946-4.416-1.606C242.747,106.349,243.439,106.593,243.611,107.357z
		 M330.328,112.978c0.116-1.723-0.56-2.652-1.205-3.613c-0.401,0-0.803,0-1.204,0C328.153,111.138,329.28,112.019,330.328,112.978z
		 M313.868,111.773c-1.277-0.062-1.767-0.91-3.212-0.803c-0.062,0.998,0.631,1.242,0.803,2.007c2.471-0.737,3.768,0.002,4.817,1.606
		c4.415-0.647,7.726-2.562,11.241-2.008c0.332-1.135-0.565-1.04-0.401-2.007c-3.848,0.301-8.065,0.231-11.241,1.204
		c0.271-1.877-1.72-1.492-2.811-2.008C311.871,110.922,314.069,110.463,313.868,111.773z"/>
</g>
</svg>
